<svg id="visual" viewBox="0 0 960 540" width="960" height="540" xmlns="http://www.w3.org/2000/svg" xmlns:xlink="http://www.w3.org/1999/xlink" version="1.1"><rect x="0" y="0" width="960" height="540" fill="#091117"></rect><defs><linearGradient id="grad1_0" x1="43.8%" y1="0%" x2="100%" y2="100%"><stop offset="14.444444444444446%" stop-color="#1e6fd4" stop-opacity="1"></stop><stop offset="85.55555555555554%" stop-color="#1e6fd4" stop-opacity="1"></stop></linearGradient></defs><defs><linearGradient id="grad1_1" x1="43.8%" y1="0%" x2="100%" y2="100%"><stop offset="14.444444444444446%" stop-color="#1e6fd4" stop-opacity="1"></stop><stop offset="85.55555555555554%" stop-color="#005090" stop-opacity="1"></stop></linearGradient></defs><defs><linearGradient id="grad1_2" x1="43.8%" y1="0%" x2="100%" y2="100%"><stop offset="14.444444444444446%" stop-color="#003150" stop-opacity="1"></stop><stop offset="85.55555555555554%" stop-color="#005090" stop-opacity="1"></stop></linearGradient></defs><defs><linearGradient id="grad1_3" x1="43.8%" y1="0%" x2="100%" y2="100%"><stop offset="14.444444444444446%" stop-color="#003150" stop-opacity="1"></stop><stop offset="85.55555555555554%" stop-color="#091117" stop-opacity="1"></stop></linearGradient></defs><defs><linearGradient id="grad2_0" x1="0%" y1="0%" x2="56.3%" y2="100%"><stop offset="14.444444444444446%" stop-color="#1e6fd4" stop-opacity="1"></stop><stop offset="85.55555555555554%" stop-color="#1e6fd4" stop-opacity="1"></stop></linearGradient></defs><defs><linearGradient id="grad2_1" x1="0%" y1="0%" x2="56.3%" y2="100%"><stop offset="14.444444444444446%" stop-color="#005090" stop-opacity="1"></stop><stop offset="85.55555555555554%" stop-color="#1e6fd4" stop-opacity="1"></stop></linearGradient></defs><defs><linearGradient id="grad2_2" x1="0%" y1="0%" x2="56.3%" y2="100%"><stop offset="14.444444444444446%" stop-color="#005090" stop-opacity="1"></stop><stop offset="85.55555555555554%" stop-color="#003150" stop-opacity="1"></stop></linearGradient></defs><defs><linearGradient id="grad2_3" x1="0%" y1="0%" x2="56.3%" y2="100%"><stop offset="14.444444444444446%" stop-color="#091117" stop-opacity="1"></stop><stop offset="85.55555555555554%" stop-color="#003150" stop-opacity="1"></stop></linearGradient></defs><g transform="translate(960, 0)"><path d="M0 378C-25.4 362.8 -50.8 347.6 -78.3 343.2C-105.9 338.8 -135.6 345.2 -164 340.6C-192.4 335.9 -219.6 320.1 -234.4 294C-249.3 267.8 -251.8 231.4 -253.3 202C-254.8 172.6 -255.3 150.2 -275.7 132.8C-296.1 115.3 -336.5 102.8 -356.8 81.4C-377.2 60.1 -377.6 30.1 -378 0L0 0Z" fill="#0a2132"></path><path d="M0 283.5C-19 272.1 -38.1 260.7 -58.7 257.4C-79.4 254.1 -101.7 258.9 -123 255.4C-144.3 251.9 -164.7 240.1 -175.8 220.5C-187 200.9 -188.9 173.6 -190 151.5C-191.1 129.5 -191.5 112.7 -206.8 99.6C-222.1 86.5 -252.3 77.1 -267.6 61.1C-282.9 45.1 -283.2 22.5 -283.5 0L0 0Z" fill="#00416f"></path><path d="M0 189C-12.7 181.4 -25.4 173.8 -39.2 171.6C-52.9 169.4 -67.8 172.6 -82 170.3C-96.2 167.9 -109.8 160 -117.2 147C-124.6 133.9 -125.9 115.7 -126.7 101C-127.4 86.3 -127.6 75.1 -137.8 66.4C-148.1 57.7 -168.2 51.4 -178.4 40.7C-188.6 30.1 -188.8 15 -189 0L0 0Z" fill="#0060b2"></path><path d="M0 94.5C-6.3 90.7 -12.7 86.9 -19.6 85.8C-26.5 84.7 -33.9 86.3 -41 85.1C-48.1 84 -54.9 80 -58.6 73.5C-62.3 67 -63 57.9 -63.3 50.5C-63.7 43.2 -63.8 37.6 -68.9 33.2C-74 28.8 -84.1 25.7 -89.2 20.4C-94.3 15 -94.4 7.5 -94.5 0L0 0Z" fill="#1e6fd4"></path></g><g transform="translate(0, 540)"><path d="M0 -378C32.4 -384.1 64.8 -390.2 84.1 -368.5C103.5 -346.9 109.8 -297.5 138.4 -287.4C167 -277.3 217.8 -306.5 231.3 -290.1C244.8 -273.6 220.9 -211.7 227.5 -181.4C234.2 -151.2 271.4 -152.8 290.1 -139.7C308.9 -126.6 309.2 -98.9 320.8 -73.2C332.3 -47.5 355.2 -23.7 378 0L0 0Z" fill="#0a2132"></path><path d="M0 -283.5C24.3 -288.1 48.6 -292.6 63.1 -276.4C77.6 -260.2 82.4 -223.1 103.8 -215.6C125.3 -208 163.4 -229.9 173.5 -217.5C183.6 -205.2 165.7 -158.7 170.6 -136.1C175.6 -113.4 203.5 -114.6 217.6 -104.8C231.7 -95 231.9 -74.2 240.6 -54.9C249.2 -35.6 266.4 -17.8 283.5 0L0 0Z" fill="#00416f"></path><path d="M0 -189C16.2 -192 32.4 -195.1 42.1 -184.3C51.7 -173.4 54.9 -148.8 69.2 -143.7C83.5 -138.7 108.9 -153.2 115.7 -145C122.4 -136.8 110.4 -105.8 113.8 -90.7C117.1 -75.6 135.7 -76.4 145.1 -69.9C154.4 -63.3 154.6 -49.5 160.4 -36.6C166.2 -23.7 177.6 -11.9 189 0L0 0Z" fill="#0060b2"></path><path d="M0 -94.5C8.1 -96 16.2 -97.5 21 -92.1C25.9 -86.7 27.5 -74.4 34.6 -71.9C41.8 -69.3 54.5 -76.6 57.8 -72.5C61.2 -68.4 55.2 -52.9 56.9 -45.4C58.5 -37.8 67.8 -38.2 72.5 -34.9C77.2 -31.7 77.3 -24.7 80.2 -18.3C83.1 -11.9 88.8 -5.9 94.5 0L0 0Z" fill="#1e6fd4"></path></g></svg>