<svg width="24" height="25" viewBox="0 0 24 25" fill="none" xmlns="http://www.w3.org/2000/svg">
<g clip-path="url(#clip0_72_302)">
<path fill-rule="evenodd" clip-rule="evenodd" d="M7.5 11.75H16.5C16.9142 11.75 17.25 11.4142 17.25 11V6.5C17.25 6.08579 16.9142 5.75 16.5 5.75H7.5C7.08579 5.75 6.75 6.08579 6.75 6.5V11C6.75 11.4142 7.08579 11.75 7.5 11.75ZM8.25 7.25H15.75V10.25H8.25V7.25ZM18.75 2.75H5.25C4.42157 2.75 3.75 3.42157 3.75 4.25V20.75C3.75 21.5784 4.42157 22.25 5.25 22.25H18.75C19.5784 22.25 20.25 21.5784 20.25 20.75V4.25C20.25 3.42157 19.5784 2.75 18.75 2.75ZM18.75 20.75H5.25V4.25H18.75V20.75ZM9.375 14.375C9.375 14.9963 8.87132 15.5 8.25 15.5C7.62868 15.5 7.125 14.9963 7.125 14.375C7.125 13.7537 7.62868 13.25 8.25 13.25C8.87132 13.25 9.375 13.7537 9.375 14.375ZM13.125 14.375C13.125 14.9963 12.6213 15.5 12 15.5C11.3787 15.5 10.875 14.9963 10.875 14.375C10.875 13.7537 11.3787 13.25 12 13.25C12.6213 13.25 13.125 13.7537 13.125 14.375ZM16.875 14.375C16.875 14.9963 16.3713 15.5 15.75 15.5C15.1287 15.5 14.625 14.9963 14.625 14.375C14.625 13.7537 15.1287 13.25 15.75 13.25C16.3713 13.25 16.875 13.7537 16.875 14.375ZM9.375 18.125C9.375 18.7463 8.87132 19.25 8.25 19.25C7.62868 19.25 7.125 18.7463 7.125 18.125C7.125 17.5037 7.62868 17 8.25 17C8.87132 17 9.375 17.5037 9.375 18.125ZM13.125 18.125C13.125 18.7463 12.6213 19.25 12 19.25C11.3787 19.25 10.875 18.7463 10.875 18.125C10.875 17.5037 11.3787 17 12 17C12.6213 17 13.125 17.5037 13.125 18.125ZM16.875 18.125C16.875 18.7463 16.3713 19.25 15.75 19.25C15.1287 19.25 14.625 18.7463 14.625 18.125C14.625 17.5037 15.1287 17 15.75 17C16.3713 17 16.875 17.5037 16.875 18.125Z" fill="#203040"/>
</g>
<defs>
<clipPath id="clip0_72_302">
<rect width="24" height="24" fill="#203040" transform="translate(0 0.5)"/>
</clipPath>
</defs>
</svg>
