<svg id="visual" viewBox="0 0 960 540" width="960" height="540" xmlns="http://www.w3.org/2000/svg" xmlns:xlink="http://www.w3.org/1999/xlink" version="1.1"><rect x="0" y="0" width="960" height="540" fill="#001220"></rect><defs><linearGradient id="grad1_0" x1="43.8%" y1="0%" x2="100%" y2="100%"><stop offset="14.444444444444446%" stop-color="#0088cc" stop-opacity="1"></stop><stop offset="85.55555555555554%" stop-color="#0088cc" stop-opacity="1"></stop></linearGradient></defs><defs><linearGradient id="grad1_1" x1="43.8%" y1="0%" x2="100%" y2="100%"><stop offset="14.444444444444446%" stop-color="#0088cc" stop-opacity="1"></stop><stop offset="85.55555555555554%" stop-color="#084970" stop-opacity="1"></stop></linearGradient></defs><defs><linearGradient id="grad1_2" x1="43.8%" y1="0%" x2="100%" y2="100%"><stop offset="14.444444444444446%" stop-color="#001220" stop-opacity="1"></stop><stop offset="85.55555555555554%" stop-color="#084970" stop-opacity="1"></stop></linearGradient></defs><defs><linearGradient id="grad2_0" x1="0%" y1="0%" x2="56.3%" y2="100%"><stop offset="14.444444444444446%" stop-color="#0088cc" stop-opacity="1"></stop><stop offset="85.55555555555554%" stop-color="#0088cc" stop-opacity="1"></stop></linearGradient></defs><defs><linearGradient id="grad2_1" x1="0%" y1="0%" x2="56.3%" y2="100%"><stop offset="14.444444444444446%" stop-color="#084970" stop-opacity="1"></stop><stop offset="85.55555555555554%" stop-color="#0088cc" stop-opacity="1"></stop></linearGradient></defs><defs><linearGradient id="grad2_2" x1="0%" y1="0%" x2="56.3%" y2="100%"><stop offset="14.444444444444446%" stop-color="#084970" stop-opacity="1"></stop><stop offset="85.55555555555554%" stop-color="#001220" stop-opacity="1"></stop></linearGradient></defs><g transform="translate(960, 0)"><path d="M0 324C-37.6 305.3 -75.2 286.6 -112.1 270.7C-149 254.8 -185.2 241.7 -218.5 218.5C-251.8 195.3 -282.2 162.1 -299.3 124C-316.4 85.9 -320.2 42.9 -324 0L0 0Z" fill="#062d46"></path><path d="M0 216C-25.1 203.5 -50.2 191.1 -74.8 180.5C-99.3 169.9 -123.5 161.1 -145.7 145.7C-167.9 130.2 -188.2 108.1 -199.6 82.7C-211 57.3 -213.5 28.6 -216 0L0 0Z" fill="#07689d"></path><path d="M0 108C-12.5 101.8 -25.1 95.5 -37.4 90.2C-49.7 84.9 -61.7 80.6 -72.8 72.8C-83.9 65.1 -94.1 54 -99.8 41.3C-105.5 28.6 -106.7 14.3 -108 0L0 0Z" fill="#0088cc"></path></g><g transform="translate(0, 540)"><path d="M0 -324C45.6 -323.4 91.1 -322.7 124 -299.3C156.9 -275.9 177 -229.7 193.7 -193.7C210.5 -157.8 223.7 -132 244.8 -101.4C266 -70.8 295 -35.4 324 0L0 0Z" fill="#062d46"></path><path d="M0 -216C30.4 -215.6 60.7 -215.2 82.7 -199.6C104.6 -184 118 -153.2 129.2 -129.2C140.3 -105.2 149.1 -88 163.2 -67.6C177.3 -47.2 196.7 -23.6 216 0L0 0Z" fill="#07689d"></path><path d="M0 -108C15.2 -107.8 30.4 -107.6 41.3 -99.8C52.3 -92 59 -76.6 64.6 -64.6C70.2 -52.6 74.6 -44 81.6 -33.8C88.7 -23.6 98.3 -11.8 108 0L0 0Z" fill="#0088cc"></path></g></svg>