<svg id="visual" viewBox="0 0 960 540" width="960" height="540" xmlns="http://www.w3.org/2000/svg" xmlns:xlink="http://www.w3.org/1999/xlink" version="1.1"><path d="M0 336L14.5 344.5C29 353 58 370 87.2 372.5C116.3 375 145.7 363 174.8 347.7C204 332.3 233 313.7 262 299.7C291 285.7 320 276.3 349 286C378 295.7 407 324.3 436.2 337.5C465.3 350.7 494.7 348.3 523.8 344.5C553 340.7 582 335.3 611 333.8C640 332.3 669 334.7 698 345.2C727 355.7 756 374.3 785.2 380.5C814.3 386.7 843.7 380.3 872.8 365.7C902 351 931 328 945.5 316.5L960 305L960 541L945.5 541C931 541 902 541 872.8 541C843.7 541 814.3 541 785.2 541C756 541 727 541 698 541C669 541 640 541 611 541C582 541 553 541 523.8 541C494.7 541 465.3 541 436.2 541C407 541 378 541 349 541C320 541 291 541 262 541C233 541 204 541 174.8 541C145.7 541 116.3 541 87.2 541C58 541 29 541 14.5 541L0 541Z" fill="#82b0de"></path><path d="M0 417L14.5 400C29 383 58 349 87.2 343.8C116.3 338.7 145.7 362.3 174.8 372.2C204 382 233 378 262 376.2C291 374.3 320 374.7 349 372.7C378 370.7 407 366.3 436.2 372.5C465.3 378.7 494.7 395.3 523.8 397.5C553 399.7 582 387.3 611 385.7C640 384 669 393 698 391.2C727 389.3 756 376.7 785.2 374.8C814.3 373 843.7 382 872.8 390.2C902 398.3 931 405.7 945.5 409.3L960 413L960 541L945.5 541C931 541 902 541 872.8 541C843.7 541 814.3 541 785.2 541C756 541 727 541 698 541C669 541 640 541 611 541C582 541 553 541 523.8 541C494.7 541 465.3 541 436.2 541C407 541 378 541 349 541C320 541 291 541 262 541C233 541 204 541 174.8 541C145.7 541 116.3 541 87.2 541C58 541 29 541 14.5 541L0 541Z" fill="#76a5d5"></path><path d="M0 406L14.5 398.8C29 391.7 58 377.3 87.2 376.2C116.3 375 145.7 387 174.8 392.2C204 397.3 233 395.7 262 396.8C291 398 320 402 349 395.5C378 389 407 372 436.2 379C465.3 386 494.7 417 523.8 431.7C553 446.3 582 444.7 611 442.7C640 440.7 669 438.3 698 438.7C727 439 756 442 785.2 433.7C814.3 425.3 843.7 405.7 872.8 401.5C902 397.3 931 408.7 945.5 414.3L960 420L960 541L945.5 541C931 541 902 541 872.8 541C843.7 541 814.3 541 785.2 541C756 541 727 541 698 541C669 541 640 541 611 541C582 541 553 541 523.8 541C494.7 541 465.3 541 436.2 541C407 541 378 541 349 541C320 541 291 541 262 541C233 541 204 541 174.8 541C145.7 541 116.3 541 87.2 541C58 541 29 541 14.5 541L0 541Z" fill="#6a9acc"></path><path d="M0 454L14.5 455.3C29 456.7 58 459.3 87.2 451.7C116.3 444 145.7 426 174.8 417.3C204 408.7 233 409.3 262 413.7C291 418 320 426 349 424.7C378 423.3 407 412.7 436.2 415.7C465.3 418.7 494.7 435.3 523.8 442.7C553 450 582 448 611 437.2C640 426.3 669 406.7 698 401.2C727 395.7 756 404.3 785.2 411.5C814.3 418.7 843.7 424.3 872.8 428.3C902 432.3 931 434.7 945.5 435.8L960 437L960 541L945.5 541C931 541 902 541 872.8 541C843.7 541 814.3 541 785.2 541C756 541 727 541 698 541C669 541 640 541 611 541C582 541 553 541 523.8 541C494.7 541 465.3 541 436.2 541C407 541 378 541 349 541C320 541 291 541 262 541C233 541 204 541 174.8 541C145.7 541 116.3 541 87.2 541C58 541 29 541 14.5 541L0 541Z" fill="#5e90c2"></path><path d="M0 465L14.5 463.8C29 462.7 58 460.3 87.2 455.2C116.3 450 145.7 442 174.8 437.5C204 433 233 432 262 432.3C291 432.7 320 434.3 349 436.8C378 439.3 407 442.7 436.2 445.3C465.3 448 494.7 450 523.8 451.7C553 453.3 582 454.7 611 458.3C640 462 669 468 698 463.8C727 459.7 756 445.3 785.2 439.5C814.3 433.7 843.7 436.3 872.8 437C902 437.7 931 436.3 945.5 435.7L960 435L960 541L945.5 541C931 541 902 541 872.8 541C843.7 541 814.3 541 785.2 541C756 541 727 541 698 541C669 541 640 541 611 541C582 541 553 541 523.8 541C494.7 541 465.3 541 436.2 541C407 541 378 541 349 541C320 541 291 541 262 541C233 541 204 541 174.8 541C145.7 541 116.3 541 87.2 541C58 541 29 541 14.5 541L0 541Z" fill="#5285b9"></path><path d="M0 469L14.5 476.2C29 483.3 58 497.7 87.2 499C116.3 500.3 145.7 488.7 174.8 488.5C204 488.3 233 499.7 262 505.8C291 512 320 513 349 509.8C378 506.7 407 499.3 436.2 491.7C465.3 484 494.7 476 523.8 479.2C553 482.3 582 496.7 611 499.7C640 502.7 669 494.3 698 487.5C727 480.7 756 475.3 785.2 474C814.3 472.7 843.7 475.3 872.8 478.5C902 481.7 931 485.3 945.5 487.2L960 489L960 541L945.5 541C931 541 902 541 872.8 541C843.7 541 814.3 541 785.2 541C756 541 727 541 698 541C669 541 640 541 611 541C582 541 553 541 523.8 541C494.7 541 465.3 541 436.2 541C407 541 378 541 349 541C320 541 291 541 262 541C233 541 204 541 174.8 541C145.7 541 116.3 541 87.2 541C58 541 29 541 14.5 541L0 541Z" fill="#467bb0"></path></svg>