<svg width="24" height="25" viewBox="0 0 24 25" fill="none" xmlns="http://www.w3.org/2000/svg">
<g clip-path="url(#clip0_72_278)">
<path fill-rule="evenodd" clip-rule="evenodd" d="M16.5 22.25C16.5 22.6642 16.1642 23 15.75 23H8.25C7.83579 23 7.5 22.6642 7.5 22.25C7.5 21.8358 7.83579 21.5 8.25 21.5H15.75C16.1642 21.5 16.5 21.8358 16.5 22.25ZM20.25 10.25C20.2565 12.7836 19.0926 15.1783 17.0963 16.7384C16.723 17.0246 16.5029 17.4672 16.5 17.9375V18.5C16.5 19.3284 15.8284 20 15 20H9C8.17157 20 7.5 19.3284 7.5 18.5V17.9375C7.49969 17.4728 7.28398 17.0344 6.91594 16.7506C4.9248 15.1999 3.75734 12.8197 3.75 10.2959C3.72563 5.82781 7.33688 2.10687 11.8013 2C14.0235 1.94645 16.1734 2.79194 17.7638 4.34496C19.3542 5.89798 20.2506 8.02709 20.25 10.25ZM18.75 10.25C18.7505 8.43116 18.017 6.68908 16.7157 5.41842C15.4143 4.14775 13.6552 3.45604 11.8369 3.5C8.18062 3.58625 5.23031 6.63031 5.25 10.2866C5.25694 12.3506 6.21244 14.2969 7.84125 15.5647C8.57354 16.134 9.00133 17.01 9 17.9375V18.5H15V17.9375C15.0021 17.0074 15.4335 16.1303 16.1691 15.5609C17.8031 14.284 18.7556 12.3238 18.75 10.25ZM17.2397 9.37438C16.8414 7.14954 15.0996 5.40815 12.8747 5.01031C12.4662 4.94145 12.0792 5.21679 12.0103 5.62531C11.9414 6.03383 12.2168 6.42082 12.6253 6.48969C14.1788 6.75125 15.4969 8.06937 15.7603 9.62562C15.8216 9.9863 16.1342 10.2501 16.5 10.25C16.5424 10.2497 16.5847 10.2463 16.6266 10.2397C17.0348 10.17 17.3093 9.78262 17.2397 9.37438Z" fill="#203040"/>
</g>
<defs>
<clipPath id="clip0_72_278">
<rect width="24" height="24" fill="#203040" transform="translate(0 0.5)"/>
</clipPath>
</defs>
</svg>
