<svg id="visual" viewBox="0 0 960 540" width="960" height="540" xmlns="http://www.w3.org/2000/svg" xmlns:xlink="http://www.w3.org/1999/xlink" version="1.1"><path d="M0 87L14.5 81.7C29 76.3 58 65.7 87.2 63C116.3 60.3 145.7 65.7 174.8 64.8C204 64 233 57 262 56.2C291 55.3 320 60.7 349 67.8C378 75 407 84 436.2 84C465.3 84 494.7 75 523.8 82.2C553 89.3 582 112.7 611 118C640 123.3 669 110.7 698 96.3C727 82 756 66 785.2 61.5C814.3 57 843.7 64 872.8 81C902 98 931 125 945.5 138.5L960 152L960 0L945.5 0C931 0 902 0 872.8 0C843.7 0 814.3 0 785.2 0C756 0 727 0 698 0C669 0 640 0 611 0C582 0 553 0 523.8 0C494.7 0 465.3 0 436.2 0C407 0 378 0 349 0C320 0 291 0 262 0C233 0 204 0 174.8 0C145.7 0 116.3 0 87.2 0C58 0 29 0 14.5 0L0 0Z" fill="#aac8e8"></path><path d="M0 147L14.5 145.2C29 143.3 58 139.7 87.2 141.5C116.3 143.3 145.7 150.7 174.8 144.3C204 138 233 118 262 115.2C291 112.3 320 126.7 349 131.2C378 135.7 407 130.3 436.2 127.7C465.3 125 494.7 125 523.8 139.5C553 154 582 183 611 193C640 203 669 194 698 181.3C727 168.7 756 152.3 785.2 146C814.3 139.7 843.7 143.3 872.8 153.2C902 163 931 179 945.5 187L960 195L960 150L945.5 136.5C931 123 902 96 872.8 79C843.7 62 814.3 55 785.2 59.5C756 64 727 80 698 94.3C669 108.7 640 121.3 611 116C582 110.7 553 87.3 523.8 80.2C494.7 73 465.3 82 436.2 82C407 82 378 73 349 65.8C320 58.7 291 53.3 262 54.2C233 55 204 62 174.8 62.8C145.7 63.7 116.3 58.3 87.2 61C58 63.7 29 74.3 14.5 79.7L0 85Z" fill="#96bce3"></path><path d="M0 260L14.5 245.7C29 231.3 58 202.7 87.2 196.3C116.3 190 145.7 206 174.8 205C204 204 233 186 262 187C291 188 320 208 349 213.5C378 219 407 210 436.2 208.2C465.3 206.3 494.7 211.7 523.8 223.3C553 235 582 253 611 262.8C640 272.7 669 274.3 698 269C727 263.7 756 251.3 785.2 244.2C814.3 237 843.7 235 872.8 240.3C902 245.7 931 258.3 945.5 264.7L960 271L960 193L945.5 185C931 177 902 161 872.8 151.2C843.7 141.3 814.3 137.7 785.2 144C756 150.3 727 166.7 698 179.3C669 192 640 201 611 191C582 181 553 152 523.8 137.5C494.7 123 465.3 123 436.2 125.7C407 128.3 378 133.7 349 129.2C320 124.7 291 110.3 262 113.2C233 116 204 136 174.8 142.3C145.7 148.7 116.3 141.3 87.2 139.5C58 137.7 29 141.3 14.5 143.2L0 145Z" fill="#82b0de"></path><path d="M0 363L14.5 369.3C29 375.7 58 388.3 87.2 387.3C116.3 386.3 145.7 371.7 174.8 355.3C204 339 233 321 262 316.5C291 312 320 321 349 345.3C378 369.7 407 409.3 436.2 422.8C465.3 436.3 494.7 423.7 523.8 415.7C553 407.7 582 404.3 611 400.8C640 397.3 669 393.7 698 380.2C727 366.7 756 343.3 785.2 338.8C814.3 334.3 843.7 348.7 872.8 363C902 377.3 931 391.7 945.5 398.8L960 406L960 269L945.5 262.7C931 256.3 902 243.7 872.8 238.3C843.7 233 814.3 235 785.2 242.2C756 249.3 727 261.7 698 267C669 272.3 640 270.7 611 260.8C582 251 553 233 523.8 221.3C494.7 209.7 465.3 204.3 436.2 206.2C407 208 378 217 349 211.5C320 206 291 186 262 185C233 184 204 202 174.8 203C145.7 204 116.3 188 87.2 194.3C58 200.7 29 229.3 14.5 243.7L0 258Z" fill="#6e98c3"></path><path d="M0 541L14.5 541C29 541 58 541 87.2 541C116.3 541 145.7 541 174.8 541C204 541 233 541 262 541C291 541 320 541 349 541C378 541 407 541 436.2 541C465.3 541 494.7 541 523.8 541C553 541 582 541 611 541C640 541 669 541 698 541C727 541 756 541 785.2 541C814.3 541 843.7 541 872.8 541C902 541 931 541 945.5 541L960 541L960 404L945.5 396.8C931 389.7 902 375.3 872.8 361C843.7 346.7 814.3 332.3 785.2 336.8C756 341.3 727 364.7 698 378.2C669 391.7 640 395.3 611 398.8C582 402.3 553 405.7 523.8 413.7C494.7 421.7 465.3 434.3 436.2 420.8C407 407.3 378 367.7 349 343.3C320 319 291 310 262 314.5C233 319 204 337 174.8 353.3C145.7 369.7 116.3 384.3 87.2 385.3C58 386.3 29 373.7 14.5 367.3L0 361Z" fill="#5b81a8"></path></svg>